<?xml version="1.0" encoding="utf-8"?>
<!-- Generator: Adobe Illustrator 27.5.0, SVG Export Plug-In . SVG Version: 6.00 Build 0)  -->
<svg version="1.1" id="Layer_3" xmlns="http://www.w3.org/2000/svg" xmlns:xlink="http://www.w3.org/1999/xlink" x="0px" y="0px"
	 viewBox="0 0 500 500" style="enable-background:new 0 0 500 500;" xml:space="preserve">
<rect style="fill:#FFFFFF;" width="500" height="500"/>
<g>
	<ellipse style="fill:#CCC6BA;" cx="160.844" cy="418.684" rx="82.325" ry="8.416"/>
	<ellipse style="fill:#CCC6BA;" cx="346.839" cy="416.971" rx="69.838" ry="6.703"/>
	<g>
		<g>
			<path style="fill:#67999B;" d="M177.396,277.697c-23.447-1.309-46.893-1.309-70.34,0c-9.415,0.526-16.76,8.36-16.76,17.79v41.969
				l103.861,0.488v-42.457C194.156,286.057,186.811,278.223,177.396,277.697z"/>
		</g>
		<g>
			<path style="fill:#67999B;" d="M74.955,324.965v82.826h22.617v-94.439H86.568C80.154,313.353,74.955,318.552,74.955,324.965z"/>
		</g>
		<g>
			<rect x="227.287" y="293.713" style="fill:#F7F4ED;" width="146.867" height="114.078"/>
		</g>
		<g>
			<path style="fill:#67999B;" d="M95.725,337.944l-0.761,69.847h110.421c0,0,0-61.308,0-69.847
				C205.385,329.405,95.725,337.944,95.725,337.944z"/>
		</g>
		<g>
			<path style="fill:#B7D5D4;" d="M200.282,313.353c-8.24,0-14.921,6.68-14.921,14.921v79.518h29.841v-79.518
				C215.203,320.033,208.523,313.353,200.282,313.353z"/>
		</g>
		<g>
			<path style="fill:#B7D5D4;" d="M97.572,313.353c-8.241,0-14.921,6.68-14.921,14.921v79.518h29.841v-79.518
				C112.493,320.033,105.813,313.353,97.572,313.353z"/>
		</g>
		<g>
			<path style="fill:#042C31;" d="M194.156,368.726H95.725c-0.165,0-0.299,0.134-0.299,0.299c0,0.165,0.134,0.299,0.299,0.299
				h98.431c0.165,0,0.299-0.134,0.299-0.299C194.455,368.86,194.321,368.726,194.156,368.726z"/>
		</g>
		<g>
			<rect x="344.498" y="293.713" style="fill:#DDD4BC;" width="29.656" height="114.078"/>
		</g>
		<g>
			<polygon style="fill:#DDD4BC;" points="220.933,293.713 220.933,407.791 230.323,407.791 228.824,293.713 			"/>
		</g>
		<g>
			<polygon style="fill:#DDD4BC;" points="220.933,407.791 230.323,407.791 374.154,407.791 374.154,401.302 220.933,401.302 			"/>
		</g>
		<g>
			<rect x="220.933" y="293.713" style="fill:#DDD4BC;" width="152.752" height="4.083"/>
		</g>
		<g>
			<path style="fill:#DDD4BC;" d="M244.877,216.167h45.767v-57.169h-45.767V216.167z M247.268,161.389h40.985v52.387h-40.985
				V161.389z"/>
		</g>
		<g>
			<path style="fill:#DDD4BC;" d="M328.898,216.167h45.768v-57.169h-45.768V216.167z M331.289,161.389h40.986v52.387h-40.986
				V161.389z"/>
		</g>
		<g>
			<path style="fill:#DDD4BC;" d="M287.509,144.232h45.768V87.063h-45.768V144.232z M289.9,89.454h40.986v52.387H289.9V89.454z"/>
		</g>
		<g>
			<rect x="225.628" y="226.979" style="fill:#DDD4BC;" width="186.679" height="9.717"/>
		</g>
		<g>
			<g>
				<rect x="225.627" y="318.827" style="fill:#DDD4BC;" width="126.155" height="4.782"/>
			</g>
		</g>
		<g>
			<g>
				<rect x="225.627" y="373.757" style="fill:#DDD4BC;" width="126.155" height="4.782"/>
			</g>
		</g>
		<g>
			<path style="fill:#DDD4BC;" d="M79.281,163.995H58.746c-1.898,0-3.437,1.539-3.437,3.437v8.402c0,1.898,1.539,3.437,3.437,3.437
				h20.535c1.898,0,3.437-1.539,3.437-3.437v-8.402C82.718,165.534,81.179,163.995,79.281,163.995z"/>
		</g>
		<g>
			<path style="fill:#DDD4BC;" d="M462.551,251.493h-20.535c-1.898,0-3.437,1.539-3.437,3.437v8.402
				c0,1.898,1.539,3.437,3.437,3.437h20.535c1.898,0,3.437-1.539,3.437-3.437v-8.402
				C465.988,253.032,464.449,251.493,462.551,251.493z"/>
		</g>
		<g>
			<path style="fill:#F7F4ED;" d="M235.895,95.987H215.36c-1.898,0-3.437,1.539-3.437,3.437v8.402c0,1.898,1.539,3.437,3.437,3.437
				h20.535c1.898,0,3.437-1.539,3.437-3.437v-8.402C239.332,97.525,237.793,95.987,235.895,95.987z"/>
		</g>
		<g>
			<path style="fill:#DDD4BC;" d="M63.107,181.481H42.572c-1.898,0-3.437,1.539-3.437,3.437v8.402c0,1.898,1.539,3.437,3.437,3.437
				h20.535c1.898,0,3.437-1.539,3.437-3.437v-8.402C66.544,183.02,65.005,181.481,63.107,181.481z"/>
		</g>
		<g>
			<path style="fill:#DDD4BC;" d="M102.3,181.481H81.765c-1.898,0-3.437,1.539-3.437,3.437v8.402c0,1.898,1.539,3.437,3.437,3.437
				H102.3c1.898,0,3.437-1.539,3.437-3.437v-8.402C105.737,183.02,104.198,181.481,102.3,181.481z"/>
		</g>
		<g>
			<path style="fill:#DDD4BC;" d="M448.846,270.022h-20.535c-1.898,0-3.437,1.539-3.437,3.437v8.402
				c0,1.898,1.539,3.437,3.437,3.437h20.535c1.898,0,3.437-1.539,3.437-3.437v-8.402
				C452.284,271.561,450.745,270.022,448.846,270.022z"/>
		</g>
		<g>
			<path style="fill:#F7F4ED;" d="M250.362,113.262h-20.535c-1.898,0-3.437,1.539-3.437,3.437v8.402
				c0,1.898,1.539,3.437,3.437,3.437h20.535c1.898,0,3.437-1.539,3.437-3.437v-8.402C253.8,114.801,252.261,113.262,250.362,113.262
				z"/>
		</g>
		<g>
			<path style="fill:#F7F4ED;" d="M422.661,164.496h-20.535c-1.898,0-3.437,1.539-3.437,3.437v8.402
				c0,1.898,1.539,3.437,3.437,3.437h20.535c1.898,0,3.437-1.539,3.437-3.437v-8.402
				C426.099,166.035,424.56,164.496,422.661,164.496z"/>
		</g>
		<g>
			<path style="fill:#F7F4ED;" d="M307.576,267.442h-20.535c-1.898,0-3.437,1.539-3.437,3.437v8.402
				c0,1.898,1.539,3.437,3.437,3.437h20.535c1.898,0,3.437-1.539,3.437-3.437v-8.402
				C311.013,268.981,309.474,267.442,307.576,267.442z"/>
		</g>
		<g>
			<path style="fill:#F7F4ED;" d="M225.47,267.442h-20.535c-1.898,0-3.437,1.539-3.437,3.437v8.402c0,1.898,1.539,3.437,3.437,3.437
				h20.535c1.898,0,3.437-1.539,3.437-3.437v-8.402C228.908,268.981,227.369,267.442,225.47,267.442z"/>
		</g>
		<g>
			<path style="fill:#F7F4ED;" d="M408.194,147.221h-20.535c-1.898,0-3.437,1.539-3.437,3.437v8.402
				c0,1.898,1.539,3.437,3.437,3.437h20.535c1.898,0,3.437-1.539,3.437-3.437v-8.402
				C411.631,148.76,410.092,147.221,408.194,147.221z"/>
		</g>
		<g>
			<path style="fill:#F7F4ED;" d="M287.89,245.028h-20.535c-1.898,0-3.437,1.539-3.437,3.437v8.402c0,1.898,1.539,3.437,3.437,3.437
				h20.535c1.898,0,3.437-1.539,3.437-3.437v-8.402C291.328,246.567,289.789,245.028,287.89,245.028z"/>
		</g>
		<g>
			<path style="fill:#DDD4BC;" d="M100.399,235.696H79.864c-1.898,0-3.437,1.539-3.437,3.437v8.402c0,1.898,1.539,3.437,3.437,3.437
				h20.535c1.898,0,3.437-1.539,3.437-3.437v-8.402C103.836,237.235,102.297,235.696,100.399,235.696z"/>
		</g>
		<g>
			<path style="fill:#DDD4BC;" d="M82.789,253.798H62.254c-1.898,0-3.437,1.539-3.437,3.437v8.402c0,1.898,1.539,3.437,3.437,3.437
				h20.535c1.898,0,3.437-1.539,3.437-3.437v-8.402C86.226,255.337,84.687,253.798,82.789,253.798z"/>
		</g>
		<g>
			<path style="fill:#DDD4BC;" d="M257.963,262.784h-4.826c-5.411,0-9.797,4.387-9.797,9.798v19.234h24.421v-19.234
				C267.761,267.171,263.374,262.784,257.963,262.784z"/>
		</g>
		<g>
			<circle style="fill:#F7F4ED;" cx="253.415" cy="275.08" r="8.026"/>
		</g>
		<g>
			<polygon style="fill:#DDD4BC;" points="243.34,291.816 243.34,293.713 245.389,293.713 245.389,291.816 265.327,291.816 
				265.327,293.713 267.761,293.713 267.761,291.816 267.761,289.166 243.34,289.166 			"/>
		</g>
		<g>
			<polygon style="fill:#FFDB8A;" points="255.55,407.791 314.483,407.791 345.805,407.791 345.805,360.572 255.55,360.572 			"/>
		</g>
		<g style="opacity:0.5;">
			<g>
				<rect x="255.55" y="360.572" style="fill:#F9C1BB;" width="35.778" height="47.22"/>
			</g>
		</g>
	</g>
	<g>
		<g>
			<path style="fill:#042C31;" d="M46.265,337.944c0,0,9.905,2.22,25.104,2.22c15.199,0,81.375-2.22,81.375-2.22
				C116.795,333.846,76.661,333.523,46.265,337.944z"/>
		</g>
		<g>
			<rect x="46.265" y="337.944" style="fill:#FFDB8A;" width="106.479" height="69.847"/>
		</g>
		<g style="opacity:0.5;">
			<g>
				<rect x="46.265" y="337.944" style="fill:#F9C1BB;" width="25.104" height="69.847"/>
			</g>
		</g>
		<g>
			<polygon style="fill:#F9A867;" points="34.012,345.202 62.958,345.202 71.369,337.944 46.265,337.944 			"/>
		</g>
		<g>
			<polygon style="fill:#F9A867;" points="71.369,337.944 77.815,347.764 156.842,347.764 152.743,337.944 			"/>
		</g>
		<g>
			<rect x="125.505" y="389.093" style="fill:#FFFFFF;" width="23.78" height="13.063"/>
		</g>
	</g>
	<g>
		<g>
			<rect x="353.546" y="341.134" style="fill:#FFDB8A;" width="80.208" height="66.657"/>
		</g>
		<g style="opacity:0.5;">
			<g>
				<rect x="353.546" y="341.134" style="fill:#F9C1BB;" width="20.607" height="66.657"/>
			</g>
		</g>
		<g>
			<rect x="364.719" y="312.797" style="fill:#FFDB8A;" width="55.716" height="28.337"/>
		</g>
		<g style="opacity:0.5;">
			<g>
				<rect x="364.719" y="312.797" style="fill:#F9C1BB;" width="16.651" height="28.337"/>
			</g>
		</g>
		<g>
			<path style="fill:#FFFFFF;" d="M433.754,340.511h-69.036c-0.344,0-0.623,0.279-0.623,0.623s0.279,0.623,0.623,0.623h69.036
				c0.344,0,0.623-0.279,0.623-0.623S434.098,340.511,433.754,340.511z"/>
		</g>
		<g>
			<polygon style="fill:#FFFFFF;" points="407.935,338.649 416.677,338.52 416.677,335.473 407.935,335.404 			"/>
		</g>
		<g>
			<polygon style="fill:#FFFFFF;" points="378.144,400.562 403.239,400.193 403.239,391.446 378.144,391.247 			"/>
		</g>
		<g>
			<path style="fill:#042C31;" d="M408.565,315.423h-10.652c-1.179,0-2.135,0.956-2.135,2.135c0,1.179,0.956,2.135,2.135,2.135
				h10.652c1.179,0,2.135-0.956,2.135-2.135C410.7,316.379,409.744,315.423,408.565,315.423z"/>
		</g>
		<g>
			<path style="fill:#042C31;" d="M413.382,347.884h-16.443c-1.82,0-3.295,1.475-3.295,3.295c0,1.82,1.475,3.295,3.295,3.295h16.443
				c1.82,0,3.295-1.475,3.295-3.295C416.677,349.359,415.202,347.884,413.382,347.884z"/>
		</g>
		<g>
			<path style="fill:#FFFFFF;" d="M418.069,372.064c-0.355,0.661-0.74,1.466-1.255,2.282c-1.008,1.645-2.392,3.574-4.34,5.114
				c-1.923,1.573-4.423,2.744-7.326,2.749c-2.901-0.001-5.387-1.21-7.328-2.716c-1.932-1.573-3.358-3.411-4.354-5.082
				c-1.989-3.38-2.547-5.631-2.679-5.513c-0.043,0.031,0.088,0.578,0.4,1.651c0.354,1.03,0.89,2.613,1.887,4.402
				c0.976,1.805,2.42,3.802,4.421,5.507c2.009,1.637,4.611,2.946,7.653,2.947c3.034-0.003,5.648-1.27,7.638-2.968
				c2.016-1.668,3.419-3.748,4.407-5.523c0.505-0.882,0.872-1.746,1.203-2.463c0.291-0.761,0.544-1.382,0.713-1.909
				c0.33-1.062,0.47-1.607,0.429-1.643c-0.041-0.036-0.265,0.436-0.664,1.407C418.669,370.787,418.384,371.357,418.069,372.064z"/>
		</g>
	</g>
	<g>
		<g>
			<polygon style="fill:#042C31;" points="136.086,223.662 137.922,205.593 117.032,192.143 			"/>
		</g>
		<g>
			<path style="fill:#FF847B;" d="M175.414,393.489c10.166,4.206,20.181,4.788,29.971,0v-11.271l-31.636-0.897L175.414,393.489z"/>
		</g>
		<g>
			<path style="fill:#042C31;" d="M233.887,410.197c-10.068-6.734-19.092-13.44-28.503-16.708c-9.628,2.494-19.665,2.174-29.971,0
				l1.22,15.85c0.18,2.333,2.106,4.145,4.445,4.181l51.519,0.812C234.849,414.367,235.758,411.448,233.887,410.197z"/>
		</g>
		<g>
			<path style="fill:#042C31;" d="M192.566,322.082c-2.12-5.742-4.924-11.206-8.353-16.276l-34.629-51.2
				c-15.937-1.025-31.126-0.025-45.538,3.075l23.337,73.945l-31.5,57.791c-0.465,0.854,0.153,1.895,1.125,1.895h46.629
				c0.545,0,1.03-0.344,1.21-0.858l14.301-40.896l5.963,34.289c0.107,0.614,0.639,1.062,1.262,1.062h47.547
				c0.892,0,1.511-0.888,1.202-1.725L192.566,322.082z"/>
		</g>
		<g>
			<path style="fill:#A8C2BB;" d="M137.006,258.749c-0.211,0.061-0.333,0.283-0.272,0.494l24.301,83.643l-2.265,6.541
				c-0.072,0.208,0.038,0.435,0.246,0.507c0.044,0.015,0.087,0.022,0.131,0.022c0.165,0,0.32-0.103,0.377-0.268l2.306-6.661
				c0.026-0.078,0.029-0.162,0.006-0.242L137.5,259.02C137.439,258.809,137.22,258.686,137.006,258.749z"/>
		</g>
		<g>
			<path style="fill:#FFBB90;" d="M99.12,137.795c-12.808,0-12.547,10.385-12.547,10.385s-0.41,8.66-0.95,8.711
				c-3.357-0.578-6.153,9.53,5.726,13.266c4.099,8.71,13.833,13.491,18.102,13.577c4.269,0.085,7.77-3.672,9.905-11.271
				s-2.732-27.681-2.732-27.681S111.928,137.795,99.12,137.795z"/>
		</g>
		<g>
			<path style="fill:#042C31;" d="M113.892,136.6c-3.586-2.818-15.951-8.62-23.14-4.952c-4.184,2.135-7.685,6.575-7.087,6.916
				c0.598,0.342,1.281,0.171,1.281,0.171s-2.293,3.33-2.214,4.526c0.079,1.195,0.848,1.522,0.848,1.522s0.501,6.7,2.044,12.11
				c0.681-0.162,3.258,0.569,3.891,0.97c0,0,0.299,7.813,1.836,12.296c0,0,2.543,5.55,6.735,8.371c0,0,4.304,3.782,9.901,5.032
				c0,0-6.133-4.374-8.908-6.978c-2.775-2.604-4.824-6.34-5.038-8.432c-0.213-2.092-0.342-11.549,2.348-15.583l-0.064-8.325
				c0,0,12.36,1.601,15.626,1.409c3.266-0.192,4.675-0.869,4.675-0.869S117.478,139.417,113.892,136.6z"/>
		</g>
		<g>
			<path style="fill:#042C31;" d="M114.359,161.891c-0.685-0.267-1.461-0.57-1.732-0.893c-0.453-0.537-0.879-4.187-1.041-6.362
				c-0.012-0.164-0.136-0.283-0.321-0.276c-0.164,0.012-0.288,0.156-0.276,0.32c0.072,0.972,0.469,5.86,1.179,6.703
				c0.37,0.439,1.184,0.757,1.973,1.064c0.515,0.201,1.475,0.576,1.502,0.777c-0.004,0.436-1.698,2.821-3.267,4.781
				c-0.103,0.129-0.082,0.317,0.047,0.42c0.055,0.044,0.121,0.065,0.187,0.065c0.087,0,0.174-0.038,0.233-0.112
				c1.051-1.313,3.484-4.45,3.393-5.218C116.171,162.599,115.371,162.287,114.359,161.891z"/>
		</g>
		<g>
			<path style="fill:#042C31;" d="M105.217,146.215L105.217,146.215c-1.378,0.001-2.72,2.002-4.44,5.23
				c-0.078,0.145-0.023,0.326,0.123,0.404c0.045,0.024,0.093,0.035,0.141,0.035c0.107,0,0.21-0.058,0.264-0.158
				c0.914-1.717,2.617-4.912,3.912-4.914h0.001c0.44,0,0.871,0.389,1.281,1.157c0.079,0.146,0.258,0.201,0.405,0.123
				c0.146-0.078,0.201-0.259,0.123-0.404C106.496,146.696,105.904,146.215,105.217,146.215z"/>
		</g>
		<g>
			<path style="fill:#042C31;" d="M113.805,146.185c-0.86,0.083-1.584,0.797-2.152,2.123c-0.065,0.151,0.005,0.327,0.157,0.392
				c0.149,0.063,0.327-0.005,0.392-0.157c0.476-1.11,1.034-1.703,1.66-1.764c0.914-0.083,2.16,0.964,3.575,3.045
				c0.058,0.085,0.152,0.131,0.248,0.131c0.058,0,0.117-0.017,0.168-0.052c0.136-0.093,0.172-0.279,0.079-0.415
				C116.343,147.151,114.989,146.066,113.805,146.185z"/>
		</g>
		<g>
			<g>
				<path style="fill:#042C31;" d="M104.256,158.761c0.363,2.05,2.717,1.637,2.354-0.416
					C106.248,156.295,103.893,156.708,104.256,158.761z"/>
			</g>
		</g>
		<g>
			<g>
				<path style="fill:#042C31;" d="M113.912,157.315c-0.128,2.069,1.661,2.183,1.79,0.111
					C115.829,155.357,114.04,155.243,113.912,157.315z"/>
			</g>
		</g>
		<g>
			<path style="fill:#042C31;" d="M109.153,179.208c2.647,1.836,5.678-4.013,3.843-6.703
				C110.981,169.555,106.506,177.372,109.153,179.208z"/>
		</g>
		<g>
			<g>
				<path style="fill:#FFAEE8;" d="M84.049,158.539c-0.312,0.021-0.592,0.072-0.859,0.136c-1.308,2.972-0.272,8.831,8.16,11.482
					c0.111,0.236,0.242,0.458,0.361,0.689l0.322-0.134l-1.58-5.721C90.453,164.991,87.934,158.278,84.049,158.539z"/>
			</g>
		</g>
		<path style="fill:#042C31;" d="M89.539,162.706c-0.013-0.042-0.032-0.081-0.061-0.113c-2.642-4.786-4.838-4.353-4.942-4.331
			c-0.158,0.037-0.255,0.194-0.221,0.353c0.035,0.16,0.195,0.261,0.353,0.23c0.019-0.003,1.778-0.28,4.052,3.614l-3.329-0.201
			c-0.18-0.01-0.306,0.116-0.316,0.281c-0.01,0.165,0.115,0.306,0.28,0.316l3.709,0.224c0.261,0.485,0.525,1.008,0.796,1.61
			c0.05,0.111,0.159,0.176,0.272,0.176c0.041,0,0.082-0.008,0.122-0.026c0.151-0.068,0.218-0.245,0.15-0.395
			C90.111,163.793,89.823,163.229,89.539,162.706z"/>
		<g>
			<path style="fill:#9B7372;" d="M113.934,180.393c0,0,0.134,1.68-2.497,2.113c-2.631,0.434-3.234-1.505-3.234-1.505
				s-1.568,1.408-4.203-0.388c-1.745-1.329-3.673-2.859-4.922-4.031c-2.775-2.604-4.824-6.34-5.038-8.432
				c-0.214-2.092-0.342-11.549,2.348-15.583l-0.064-8.325c-9.371-3.458-12.744,0.54-12.744,0.54s0.501,6.7,2.044,12.11
				c0.681-0.162,3.258,0.569,3.891,0.97c0,0,0.299,7.813,1.836,12.296c0,0,2.543,5.55,6.735,8.371c0,0,2.53,2.217,6.228,3.817
				c0.099,0.044,0.195,0.081,0.293,0.123c0.157,0.065,0.312,0.132,0.473,0.194c1.022,0.407,1.98,0.703,2.828,0.878
				c0.027,0.006,0.052,0.014,0.079,0.02c0,0-0.003-0.003-0.004-0.003c0.539,0.107,1.033,0.167,1.47,0.175
				c2.677,0.053,5.052-1.406,6.978-4.375C114.638,180.691,113.934,180.393,113.934,180.393z"/>
		</g>
		<g>
			<path style="fill:#67999B;" d="M98.651,187.562c-1.951,0.541-3.495,2.045-4.099,3.978c-4.843,15.528,7.385,65.474,7.385,65.474
				c16.7,5.53,45.939,9.375,47.646-2.409c-3.011-6.444-17.078-42.523-24.421-53.282C118.347,191.337,109.384,184.585,98.651,187.562
				z"/>
		</g>
		<g>
			<path style="fill:#838BC5;" d="M117.032,192.143l-6.084-0.3c7.387,5.206,15.667,15.159,15.667,15.159l3.805,3.756
				c-1.934-3.899-3.74-7.212-5.257-9.434C122.722,197.748,120.005,194.591,117.032,192.143z"/>
		</g>
		<g>
			<path style="fill:#042C31;" d="M100.75,187.101c0.05,0.026,17.964,9.198,17.39,5.992
				C113.095,188.546,107.269,186.031,100.75,187.101z"/>
		</g>
		<g>
			<path style="fill:#838BC5;" d="M140.599,242.863l-20.701-19.851l-14.801-17.419c0,0,18.829,26.747,28.178,40.346
				c2.818,4.099,16.309,8.667,16.309,8.667l-3.993-9.385L140.599,242.863z"/>
		</g>
		<g>
			<polygon style="fill:#FFDB8A;" points="204.249,174.438 128.065,189.535 147.665,272.928 240.095,254.218 224.213,171.523 			"/>
		</g>
		<g style="opacity:0.5;">
			<g>
				<polygon style="fill:#F9C1BB;" points="204.249,174.438 220.933,258.097 240.095,254.218 224.213,171.523 				"/>
			</g>
		</g>
		<g>
			<polygon style="fill:#FFFFFF;" points="160.146,183.178 162.734,192.401 179.64,188.43 178.725,179.496 			"/>
		</g>
		<g>
			<polygon style="fill:#FFFFFF;" points="148.491,249.23 152.487,264.34 176.737,259.131 173.322,243.335 			"/>
		</g>
		<g>
			<polygon style="fill:#FFDB8A;" points="189.753,116.961 125.163,130.468 137.922,187.582 204.249,174.438 215.718,172.764 
				205.428,116.79 			"/>
		</g>
		<g style="opacity:0.5;">
			<g>
				<polygon style="fill:#F9C1BB;" points="189.753,116.961 200.638,175.154 204.249,174.438 215.718,172.764 205.428,116.79 				
					"/>
			</g>
		</g>
		<g>
			<polygon style="fill:#FFDB8A;" points="170.441,72.9 122.931,84.081 133.13,128.802 189.753,116.961 199.96,116.849 191.68,72.9 
							"/>
		</g>
		<g style="opacity:0.5;">
			<g>
				<polygon style="fill:#F9C1BB;" points="170.441,72.9 179.654,119.073 189.753,116.961 199.96,116.849 191.68,72.9 				"/>
			</g>
		</g>
		<g>
			<path style="fill:#042C31;" d="M167.916,126.732c-0.315-1.713-1.967-2.84-3.676-2.507l-12.758,2.483
				c-1.754,0.341-2.867,2.079-2.442,3.815c0.395,1.614,1.982,2.639,3.615,2.333l12.775-2.387c1.696-0.317,2.815-1.946,2.504-3.642
				L167.916,126.732z"/>
		</g>
		<g>
			<polygon style="fill:#FFFFFF;" points="171.614,165.632 172.757,170.999 190.848,167.745 189.753,162.045 			"/>
		</g>
		<g>
			<polygon style="fill:#042C31;" points="143.052,170.633 143.241,171.765 161.332,168.022 161.191,167.047 			"/>
		</g>
		<g>
			<polygon style="fill:#042C31;" points="143.436,173.771 143.626,174.903 161.861,171.13 161.576,170.185 			"/>
		</g>
		<g>
			<polygon style="fill:#FFFFFF;" points="160.812,113.887 162.157,119.842 173.941,117.537 172.596,111.453 			"/>
		</g>
		<g>
			<path style="fill:#FFFFFF;" d="M224.155,171.129l-19.984,2.918l-66.328,13.144c-0.216,0.042-0.356,0.252-0.313,0.468
				c0.037,0.19,0.204,0.321,0.39,0.321c0.026,0,0.052-0.002,0.079-0.008l66.307-13.141l19.964-2.915
				c0.218-0.031,0.368-0.234,0.337-0.452C224.575,171.248,224.367,171.092,224.155,171.129z"/>
		</g>
		<g>
			<path style="fill:#FFFFFF;" d="M205.423,116.391l-15.751,0.179l-64.591,13.507c-0.215,0.045-0.353,0.256-0.308,0.472
				c0.039,0.188,0.205,0.317,0.389,0.317c0.027,0,0.054-0.003,0.082-0.009l64.514-13.499l15.674-0.171
				c0.219-0.002,0.396-0.183,0.394-0.403C205.823,116.565,205.654,116.388,205.423,116.391z"/>
		</g>
		<g>
			<path style="fill:#E8BA7A;" d="M152.563,77.108l-16.61,3.909C140.576,87.246,150.694,86.093,152.563,77.108z"/>
		</g>
		<g style="opacity:0.79;">
			<g>
				<polygon style="fill:#F9C1BB;" points="138.141,232.405 147.665,272.928 220.933,258.097 219.85,252.666 				"/>
			</g>
		</g>
		<g>
			<path style="fill:#FFBB90;" d="M205.598,249.482c0,0,8.368-0.939,9.649-7.343c0.435-2.177-11.527-0.085-16.907-2.305
				c-5.38-2.22-11.271,3.501-11.271,3.501l-37.485-13.662l-22.969-22.67l-6.716,16.01l18.743,18.302
				c1.365,1.333,2.986,2.374,4.766,3.062l41.955,16.206c0,0,7.856,5.806,9.649,5.806c1.793,0,5.636-0.854,5.636-0.854
				s5.756,0.086,7.514-2.562c0,0,6.746,0.768,7.6-0.342c0.854-1.11,1.135-3.718,1.135-3.718S210.38,255.46,205.598,249.482z"/>
		</g>
		<g>
			<path style="fill:#042C31;" d="M185.469,260.304l-41.597-16.068c-1.989-0.769-3.772-1.914-5.297-3.403l-18.468-18.034
				c-0.117-0.115-0.307-0.113-0.423,0.005c-0.115,0.118-0.113,0.307,0.005,0.423l18.468,18.034c1.583,1.547,3.433,2.736,5.499,3.533
				l41.597,16.068c0.035,0.014,0.072,0.02,0.107,0.02c0.12,0,0.233-0.073,0.279-0.191
				C185.7,260.536,185.623,260.363,185.469,260.304z"/>
		</g>
		<g>
			<g>
				<path style="fill:#042C31;" d="M196.922,263.596c-0.151-0.065-0.328,0.004-0.393,0.156c-0.066,0.151,0.004,0.327,0.155,0.393
					l3.843,1.665c0.039,0.017,0.079,0.025,0.119,0.025c0.115,0,0.226-0.067,0.274-0.18c0.066-0.151-0.004-0.327-0.155-0.393
					L196.922,263.596z"/>
			</g>
			<g>
				<path style="fill:#042C31;" d="M208.273,262.697l-3.727-1.537c-0.148-0.061-0.326,0.01-0.39,0.162
					c-0.063,0.152,0.01,0.327,0.163,0.39l3.727,1.537c0.037,0.015,0.076,0.022,0.114,0.022c0.117,0,0.229-0.07,0.276-0.185
					C208.499,262.935,208.426,262.76,208.273,262.697z"/>
			</g>
		</g>
		<g>
			<path style="fill:#FFBB90;" d="M97.668,401.302c0,0-2.177,8.966,14.217,8.966c16.394,0,19.255-6.916,19.255-6.916l6.276-12.04
				H102.4L97.668,401.302z"/>
		</g>
		<g>
			<path style="fill:#042C31;" d="M157.92,417.973c-9.28-5.802-16.969-10.144-26.78-14.621c-13.028,2.462-22.503,1.519-33.472-2.049
				L90.544,418.4c-0.876,2.103,0.669,4.42,2.947,4.42h63.018C159.138,422.82,160.149,419.367,157.92,417.973z"/>
		</g>
	</g>
	<g>
		<g>
			<path style="fill:#042C31;" d="M339.579,201.846l4.072,18.428l16.2,0.688C347.043,211.469,339.579,201.846,339.579,201.846z"/>
		</g>
		<g>
			<g>
				<path style="fill:#FF847B;" d="M355.887,393.803c-0.828-0.651-1.24-1.698-1.079-2.739l1.789-11.554h-22.542l-3.947,29.717
					c-0.216,1.627,1.05,3.072,2.691,3.072h44.681c0.629,0,0.905-0.795,0.41-1.184L355.887,393.803z"/>
			</g>
			<g>
				<path style="fill:#042C31;" d="M360.78,395.905c-10.613,0.241-12.467,16.394-12.467,16.394h-15.515
					c-1.896,0-1.306,1.921-1.306,1.921s45.341,0,46.652,0s2.446-1.921,2.446-1.921C383.322,411.36,360.78,395.905,360.78,395.905z"
					/>
			</g>
		</g>
		<g>
			<g>
				<path style="fill:#FFBB90;" d="M319.565,397.919c-0.828-0.651-1.24-1.698-1.079-2.739l1.789-11.554h-22.542l-3.947,29.717
					c-0.216,1.627,1.05,3.072,2.691,3.072h44.681c0.63,0,0.905-0.795,0.41-1.184L319.565,397.919z"/>
			</g>
			<g>
				<path style="fill:#042C31;" d="M324.458,400.021c-10.613,0.241-12.467,16.394-12.467,16.394h-15.515
					c-1.896,0-1.306,1.921-1.306,1.921s45.341,0,46.652,0c1.311,0,2.446-1.921,2.446-1.921
					C347.001,415.476,324.458,400.021,324.458,400.021z"/>
			</g>
		</g>
		<g>
			<g>
				<path style="fill:#042C31;" d="M313.187,263.145c-4.621,38.556-12.776,81.409-22.766,123.649h36.77l0.19-1.715H362.2
					c-2.905-41.185-6.57-79.979-11.315-115.381C350.884,269.697,323.604,260.924,313.187,263.145z"/>
			</g>
			<g>
				<path style="fill:#A8C2BB;" d="M338.76,278.46c-0.202-0.022-0.415,0.135-0.438,0.354l-11.528,107.937
					c-0.023,0.219,0.135,0.415,0.354,0.439c0.014,0.001,0.028,0.002,0.043,0.002c0.201,0,0.374-0.152,0.395-0.356l11.528-107.937
					C339.138,278.679,338.98,278.483,338.76,278.46z"/>
			</g>
			<g>
				<path style="fill:#A8C2BB;" d="M345.709,276.591l-10.247,2.562c-0.214,0.053-0.343,0.27-0.29,0.483
					c0.045,0.181,0.208,0.302,0.387,0.302c0.032,0,0.065-0.004,0.096-0.012l10.247-2.562c0.214-0.053,0.343-0.27,0.29-0.483
					C346.138,276.667,345.918,276.536,345.709,276.591z"/>
			</g>
		</g>
		<g>
			<g>
				<path style="fill:#042C31;" d="M355.753,129.769c-9.606-0.769-12.04,8.069-12.04,8.069s-0.908,14.518,0,30.996
					c0.908,16.478,17.547,21.518,17.547,21.518c-2.396-6.473-2.471-13.704-1.153-21.39c0,2.818,1.281,8.966,1.281,8.966
					C369.201,166.784,365.359,130.537,355.753,129.769z"/>
			</g>
			<g>
				<path style="fill:#FFBB90;" d="M319.89,142.705c0,0-6.148,5.123-6.916,12.04c-0.768,6.917,0.897,20.365,3.458,25.36
					c2.562,4.995,14.766,13.363,24.336-4.483c4.355,1.622,9.393-4.098,8.795-12.125C349.562,163.497,341.963,136.002,319.89,142.705
					z"/>
			</g>
			<g>
				<path style="fill:#042C31;" d="M342.753,137.966c-12.6-2.025-20.267,1.477-23.161,3.686c-4.568,3.486-5.714,9.466-5.714,9.466
					c7.578-8.517,26.442-2.906,26.804,17.16c3.095-7.365,8.454-7.984,8.88-4.782C353.034,152.79,347.534,138.734,342.753,137.966z"
					/>
			</g>
			<g>
				<path style="fill:#67999B;" d="M345.928,137.735c-9.771-3.227-25.141,0.744-27.316,4.867
					c9.072-4.372,23.244,3.882,27.051,19.509c1.019-0.563,3.686-0.322,3.9,1.386C352.423,156.602,351.718,142.129,345.928,137.735z"
					/>
			</g>
			<g>
				<path style="fill:#042C31;" d="M341.132,142.174c-0.117,0.117-0.116,0.306,0.001,0.423c0.066,0.066,6.579,6.694,6.955,19.252
					c0.005,0.162,0.138,0.29,0.299,0.29c0.003,0,0.006,0,0.009,0c0.165-0.005,0.294-0.143,0.289-0.308
					c-0.384-12.809-7.064-19.591-7.131-19.658C341.438,142.057,341.248,142.057,341.132,142.174z"/>
			</g>
			<g>
				<path style="fill:#042C31;" d="M336.545,138.67c-0.152-0.06-0.327,0.013-0.388,0.166c-0.061,0.153,0.012,0.327,0.166,0.389
					c1.878,0.755,3.361,2.284,3.375,2.299c0.058,0.061,0.137,0.092,0.216,0.092c0.075,0,0.149-0.028,0.207-0.083
					c0.119-0.115,0.123-0.303,0.009-0.423C340.065,141.044,338.546,139.475,336.545,138.67z"/>
			</g>
			<g>
				<path style="fill:#042C31;" d="M323.049,161.875c-0.165,0-0.299,0.134-0.299,0.299v8.781c-1.408-0.49-2.404-0.081-2.789,0.595
					c-0.443,0.776-0.236,2.193,1.806,3.633c0.052,0.037,0.112,0.054,0.172,0.054c0.093,0,0.186-0.044,0.244-0.126
					c0.095-0.135,0.063-0.321-0.072-0.417c-1.604-1.132-1.975-2.246-1.631-2.848c0.279-0.49,1.164-0.757,2.446-0.179
					c0.094,0.042,0.199,0.034,0.285-0.021c0.086-0.055,0.137-0.149,0.137-0.251v-9.222
					C323.348,162.008,323.214,161.875,323.049,161.875z"/>
			</g>
			<path style="fill:#042C31;" d="M348.07,163.8c-1.548,0.722-2.968,2.058-4.329,4.087c-0.008,0.009-0.013,0.02-0.02,0.029
				c-0.902,1.35-1.78,3.002-2.652,4.993c-0.066,0.151,0.003,0.327,0.154,0.394c0.039,0.017,0.079,0.025,0.12,0.025
				c0.115,0,0.225-0.067,0.274-0.179c0.83-1.896,1.66-3.474,2.509-4.767l3.731-0.178c0.165-0.008,0.293-0.148,0.285-0.313
				c-0.008-0.165-0.14-0.305-0.313-0.284l-3.28,0.156c1.199-1.678,2.439-2.799,3.773-3.422c0.15-0.07,0.215-0.247,0.145-0.397
				C348.397,163.794,348.217,163.731,348.07,163.8z"/>
			<g>
				<g>
					<path style="fill:#FFAEE8;" d="M343.66,168.549c-2.455,3.814-2.893,7.073-2.893,7.073c4.282,1.595,9.213-3.916,8.807-11.733
						C347.516,163.895,345.694,165.389,343.66,168.549z"/>
				</g>
			</g>
			<g>
				<path style="fill:#042C31;" d="M319.19,153.423c-1.724-0.283-3.568,1.323-4.431,2.976c-0.077,0.146-0.02,0.327,0.126,0.404
					c0.147,0.077,0.327,0.02,0.403-0.126c0.779-1.49,2.419-2.895,3.805-2.664c1.1,0.181,1.85,1.359,2.169,3.404
					c0.022,0.147,0.15,0.253,0.295,0.253c0.015,0,0.03-0.001,0.046-0.004c0.163-0.025,0.275-0.178,0.249-0.341
					C321.394,154.387,320.152,153.581,319.19,153.423z"/>
			</g>
			<g>
				<path style="fill:#042C31;" d="M330.297,153.423c-0.961,0.159-2.204,0.964-2.662,3.902c-0.026,0.163,0.086,0.316,0.249,0.341
					c0.016,0.002,0.031,0.004,0.046,0.004c0.145,0,0.272-0.105,0.295-0.253c0.319-2.045,1.069-3.223,2.169-3.404
					c1.386-0.221,3.027,1.175,3.806,2.664c0.076,0.146,0.257,0.202,0.403,0.126c0.146-0.077,0.203-0.257,0.126-0.404
					C333.865,154.745,332.022,153.138,330.297,153.423z"/>
			</g>
			<g>
				<g>
					<path style="fill:#042C31;" d="M327.538,165.35c-0.169,2.075,2.214,2.272,2.383,0.194
						C330.09,163.469,327.707,163.271,327.538,165.35z"/>
				</g>
			</g>
			<g>
				<g>
					<path style="fill:#042C31;" d="M317.926,166.246c0.321,2.048,2.093,1.773,1.771-0.278
						C319.376,163.92,317.604,164.195,317.926,166.246z"/>
				</g>
			</g>
			<g>
				<path style="fill:#042C31;" d="M323.348,180.404c0,0,5.678,1.11,8.026,0c2.348-1.11,2.818-6.874,2.818-6.874
					C330.691,177.927,323.348,180.404,323.348,180.404z"/>
			</g>
		</g>
		<g>
			<path style="fill:#67999B;" d="M320.786,194.834c-6.233,5.806-7.6,68.31-7.6,68.31c29.203,14.174,38.595,5.977,38.595,5.977
				s-6.276-56.228-11.015-65.322C336.028,194.706,324.798,191.098,320.786,194.834z"/>
		</g>
		<g>
			<path style="fill:#042C31;" d="M324.496,193.421c-0.035,0.187-0.05,2.305,15.083,8.425
				C335.648,196.093,329.087,193.08,324.496,193.421z"/>
		</g>
		<g>
			<path style="fill:#838BC5;" d="M329.581,201.846c0,0,5.091,13.993,7.311,18.86l-1.334,0.769l-11.066,5.465l-2.425,1.195
				c0,0-4.82-15.071-4.203-25.296c-3.759,18.356-4.677,60.305-4.677,60.305c29.203,14.174,38.595,5.977,38.595,5.977
				s-3.295-29.518-6.913-49.238C339.936,219.034,333.708,211.722,329.581,201.846z"/>
		</g>
		<g>
			<g>
				<polygon style="fill:#FFDB8A;" points="343.651,220.275 345.805,278.927 402.161,277.66 413.432,276.294 413.432,220.28 
					401.478,219.426 				"/>
			</g>
			<g style="opacity:0.5;">
				<g>
					<polygon style="fill:#F9C1BB;" points="402.161,277.66 413.432,276.294 413.432,220.28 401.478,219.426 					"/>
				</g>
			</g>
			<g>
				<path style="fill:#042C31;" d="M379.822,223.516l-12.38,0.189c-1.886,0.029-3.392,1.581-3.363,3.467
					c0.029,1.886,1.581,3.392,3.467,3.363l12.38-0.189c1.886-0.029,3.392-1.581,3.363-3.467
					C383.26,224.992,381.708,223.487,379.822,223.516z"/>
			</g>
			<g>
				<polygon style="fill:#FFFFFF;" points="382.649,271.048 399.941,270.787 399.941,262.397 382.394,262.784 				"/>
			</g>
		</g>
		<g>
			<g>
				<path style="fill:#FFBB90;" d="M371.934,272.11c3.672,0.341,7.941-2.135,7.856-3.074c-0.085-0.939-8.112-1.281-9.307-1.11
					c-1.195,0.171-6.532,2.22-6.532,2.22l-23.268-32.106l-5.123-16.565l-11.066,5.465l5.662,17.998
					c0.749,2.382,1.936,4.598,3.506,6.54c6.259,7.744,25.049,28.127,26.639,30.132c1.964,2.476,4.935,1.802,7.429,2.177
					c2.995,0.451,4.568,0.702,5.764,0.36c1.195-0.342,2.54,0.856,5.05-0.595c2.853-1.65,3.468-5.439,3.468-5.439l-2.477,0.056
					C377.229,277.571,371.934,272.11,371.934,272.11z"/>
			</g>
			<g>
				<g>
					<path style="fill:#042C31;" d="M372.022,281.736c-0.126-0.108-0.314-0.095-0.422,0.031c-0.107,0.125-0.093,0.314,0.031,0.421
						l2.486,2.141c0.057,0.049,0.126,0.072,0.195,0.072c0.084,0,0.167-0.035,0.227-0.104c0.107-0.125,0.093-0.314-0.031-0.421
						L372.022,281.736z"/>
				</g>
				<g>
					<path style="fill:#042C31;" d="M366.147,281.946c-0.132-0.097-0.32-0.071-0.418,0.063c-0.098,0.133-0.07,0.32,0.063,0.418
						l1.957,1.444c0.054,0.039,0.115,0.058,0.177,0.058c0.091,0,0.182-0.042,0.241-0.122c0.098-0.133,0.07-0.32-0.063-0.418
						L366.147,281.946z"/>
				</g>
			</g>
		</g>
	</g>
</g>
</svg>
